<svg xmlns="http://www.w3.org/2000/svg" width="32.97" height="40" viewBox="0 0 32.97 40">
  <defs>
    <style>
      .cls-1 {
        fill: #ff8400;
        fill-rule: evenodd;
      }
    </style>
  </defs>
  <path id="Android_h" class="cls-1" d="M1578.83,13487.2a1.246,1.246,0,0,0-1.21,1.2A1.215,1.215,0,1,0,1578.83,13487.2Zm9.41,0a1.246,1.246,0,0,0-1.21,1.2A1.215,1.215,0,1,0,1588.24,13487.2Zm8.71,5.1a3,3,0,0,0-1.86.6l-0.02-.3a0.355,0.355,0,0,1-.02-0.1v-0.2h-0.02a10.168,10.168,0,0,0-5.48-7.5l1.66-2.4a0.83,0.83,0,0,0,.16-0.7,1.232,1.232,0,0,0-.37-0.6,1.074,1.074,0,0,0-1.29.3l-1.86,2.7a12.99,12.99,0,0,0-8.7,0l-1.86-2.7a1.088,1.088,0,0,0-1.3-.3,1.4,1.4,0,0,0-.37.6,0.865,0.865,0,0,0,.16.7l1.66,2.4a9.974,9.974,0,0,0-5.51,7.8l-0.03.3a3.076,3.076,0,0,0-4.9,2.4v9.7a3.077,3.077,0,0,0,3.04,3.1,3.221,3.221,0,0,0,1.93-.7v3.2a2.486,2.486,0,0,0,2.49,2.5h1.63v4.8a3.036,3.036,0,1,0,6.07,0v-4.8h2.7v4.8a3.036,3.036,0,1,0,6.07,0v-4.8h1.63a2.486,2.486,0,0,0,2.49-2.5v-3.2a3.157,3.157,0,0,0,1.9.7,3.076,3.076,0,0,0,3.03-3.1v-9.7A2.99,2.99,0,0,0,1596.95,13492.3Zm-25.02,12.7a1.9,1.9,0,1,1-3.79,0v-9.7a1.9,1.9,0,1,1,3.79,0v9.7Zm6.59-19.4,0.62-.3a11.933,11.933,0,0,1,8.72,0l0.61,0.3a8.839,8.839,0,0,1,5.39,6.5h-20.72A8.826,8.826,0,0,1,1578.52,13485.6Zm15.39,25a1.362,1.362,0,0,1-1.35,1.4h-2.77v5.9a1.9,1.9,0,1,1-3.79,0v-5.9h-4.98v5.9a1.9,1.9,0,1,1-3.79,0v-5.9h-2.77a1.362,1.362,0,0,1-1.35-1.4v-17.2h20.8v17.2Zm4.94-5.6a1.9,1.9,0,1,1-3.8,0v-9.7a1.9,1.9,0,1,1,3.8,0v9.7Z" transform="translate(-1567 -13481)"/>
</svg>
