<svg id="Breaking" xmlns="http://www.w3.org/2000/svg" width="170" height="40" viewBox="0 0 170 40">
  <defs>
    <style>
      .cls-1 {
        fill: #c00;
      }

      .cls-2 {
        fill: #fff;
        fill-rule: evenodd;
      }
    </style>
  </defs>
  <rect id="pad" class="cls-1" width="170" height="40"/>
  <path id="Извънредно" class="cls-2" d="M350.927,272.754H346.1l-3.552,11.3H342.5v-11.3h-4.272V291.93h4.8l3.576-11.856h0.048V291.93h4.272V272.754Zm3.024,18.276a5.847,5.847,0,0,0,3.96,1.212q3.024,0,4.188-1.488a7.5,7.5,0,0,0,1.164-4.632q0-3.984-2.256-4.728a3.172,3.172,0,0,0,1.692-1.62,6.749,6.749,0,0,0,.42-2.556,4.477,4.477,0,0,0-1.356-3.672,5.956,5.956,0,0,0-3.852-1.1q-3.024,0-4.212,1.464a6.35,6.35,0,0,0-1.044,4.392h4.1v-1.2q0-1.392,1.08-1.392,1.008,0,1.008,1.3v1.56a1.257,1.257,0,0,1-.54,1.068,2.112,2.112,0,0,1-1.284.4h-0.744v3.12a2.746,2.746,0,0,1,2.172.66,3.894,3.894,0,0,1,.54,2.388v1.344q0,1.44-1.152,1.44t-1.152-1.44V285.57h-4.128v1.8A4.594,4.594,0,0,0,353.951,291.03Zm17.232,0.9q5.112,0,5.112-5.688,0-3.888-2.9-4.416v-0.048a2.954,2.954,0,0,0,1.944-1.608,7.484,7.484,0,0,0,.48-2.9,4.487,4.487,0,0,0-1.152-3.48,5.328,5.328,0,0,0-3.624-1.032h-6.12V291.93h6.264Zm-0.84-8.472a1.205,1.205,0,0,1,1.248.684,5.06,5.06,0,0,1,.288,1.908,5.005,5.005,0,0,1-.288,2.064,1.382,1.382,0,0,1-1.344.552h-0.912v-5.208h1.008Zm-0.024-7.44a1.135,1.135,0,0,1,1.08.5,3.319,3.319,0,0,1,.288,1.584,3.652,3.652,0,0,1-.3,1.668,1.269,1.269,0,0,1-1.236.564h-0.816v-4.32h0.984Zm15.336,6.96q1.536,0,1.536,2.832a5.965,5.965,0,0,1-.288,2.208,1.309,1.309,0,0,1-1.344.648h-0.912v-5.688h1.008Zm-7.824-10.224v3.7h2.4v15.48H386.5q5.112,0,5.112-5.928a8.941,8.941,0,0,0-1.044-4.4q-1.044-1.884-4.068-1.884h-1.848v-6.96h-6.816Zm20.088,19.176v-8.16h2.544v8.16h4.416V272.754h-4.416v7.176h-2.544v-7.176H393.5V291.93h4.416Zm13.848-15.768a3.065,3.065,0,0,1,1.764.36A2.652,2.652,0,0,1,414,278.49a4.193,4.193,0,0,1-.3,1.908,1.428,1.428,0,0,1-1.332.516h-1.1v-4.752h0.5Zm-0.5,15.768v-7.608h2.5q2.687,0,3.672-1.584a7.789,7.789,0,0,0,.984-4.152,7.954,7.954,0,0,0-.684-3.72,3.449,3.449,0,0,0-2.136-1.68,14.718,14.718,0,0,0-4.02-.432h-4.728V291.93h4.416Zm18.96,0v-3.7h-5.616v-4.272h4.728v-3.7h-4.728V276.45h5.4v-3.7h-9.816V291.93h10.032Zm15.408-3.816h-0.7v-15.36H433.751V278.8a43.488,43.488,0,0,1-.252,5.388,17.538,17.538,0,0,1-1.02,3.9h-0.528v6.48h4.416v-2.64h4.848v2.64h4.416v-6.456Zm-8.712,0a14.351,14.351,0,0,0,1.032-3.816,51.433,51.433,0,0,0,.216-5.5v-2.208h2.352v11.52h-3.6Zm14.807,3.816v-8.16h2.544v8.16h4.416V272.754H454.27v7.176h-2.544v-7.176H447.31V291.93h4.416Zm14.616-16.08q1.272,0,1.272,1.752v9.48q0,1.752-1.272,1.752t-1.272-1.752V277.6q0-1.752,1.272-1.752h0Zm-4.152,14.9a5.714,5.714,0,0,0,4.152,1.488,6.387,6.387,0,0,0,3.024-.684,4.708,4.708,0,0,0,1.98-1.932,6,6,0,0,0,.684-2.928v-8.712a6.076,6.076,0,0,0-.708-3.06,4.524,4.524,0,0,0-1.992-1.86,7.466,7.466,0,0,0-5.976,0,4.524,4.524,0,0,0-1.992,1.86,6.076,6.076,0,0,0-.708,3.06V286.7A5.384,5.384,0,0,0,462.19,290.754Z" transform="translate(-320 -262)"/>
</svg>
