<svg xmlns="http://www.w3.org/2000/svg" width="26" height="26" viewBox="0 0 26 26">
  <defs>
    <style>
      .cls-1 {
        fill: #ff8400;
        fill-rule: evenodd;
      }
    </style>
  </defs>
  <path id="Fullscreen_h" class="cls-1" d="M1567,253h20a3,3,0,0,1,3,3v20a3,3,0,0,1-3,3h-20a3,3,0,0,1-3-3V256A3,3,0,0,1,1567,253Zm1,2h18a2,2,0,0,1,2,2v18a2,2,0,0,1-2,2h-18a2,2,0,0,1-2-2V257A2,2,0,0,1,1568,255Zm3.25,18H1574a1,1,0,0,1,0,2l-5.14,0a0.874,0.874,0,0,1-.87-0.862c0-1.762.01-3.374,0.01-5.136a1,1,0,0,1,2,0v2.643c1.33-1.182,2.22-2.107,3.47-3.355a0.872,0.872,0,0,1,1.23,1.234C1573.45,270.769,1572.5,271.754,1571.25,273Zm11.49-13.99h-2.77a1,1,0,0,1,0-2.009l5.16,0a0.878,0.878,0,0,1,.88.866c0,1.77-.01,3.389-0.01,5.158a1.005,1.005,0,0,1-2.01,0v-2.654c-1.34,1.187-2.23,2.117-3.49,3.37a0.874,0.874,0,0,1-1.23-1.24C1580.53,261.25,1581.48,260.261,1582.74,259.009Z" transform="translate(-1564 -253)"/>
</svg>
