<svg id="Grid_Hide" xmlns="http://www.w3.org/2000/svg" width="26" height="26" viewBox="0 0 26 26">
  <defs>
    <style>
      .cls-1 {
        fill: #999;
      }

      .cls-1, .cls-2 {
        fill-rule: evenodd;
      }
    </style>
  </defs>
  <path id="grid" class="cls-1" d="M1564,1407h6v6h-6v-6Zm10,0h6v6h-6v-6Zm-10,10h6v6h-6v-6Zm10,0h6v6h-6v-6Zm10-10h6v6h-6v-6Zm0,10h6v6h-6v-6Zm0,10h6v6h-6v-6Zm-20,0h6v6h-6v-6Zm10,0h6v6h-6v-6Z" transform="translate(-1564 -1407)"/>
  <path id="grid-2" data-name="grid" class="cls-2" d="M1564,1417h6v6h-6v-6Zm10,0h6v6h-6v-6Zm10,0h6v6h-6v-6Z" transform="translate(-1564 -1407)"/>
</svg>
