<svg xmlns="http://www.w3.org/2000/svg" width="34.09" height="40" viewBox="0 0 34.09 40">
  <defs>
    <style>
      .cls-1 {
        fill: #fff;
        fill-rule: evenodd;
      }
    </style>
  </defs>
  <path id="iOS" class="cls-1" d="M1489.09,13509.7c-0.15.4-.24,0.6-0.29,0.8a1.877,1.877,0,0,0-.12.3q-0.165.45-.48,1.2a15.1,15.1,0,0,1-.69,1.4,12.936,12.936,0,0,1-.79,1.4,8.172,8.172,0,0,1-.76,1.2c-0.45.6-.91,1.2-1.4,1.8a8.305,8.305,0,0,1-1.53,1.5,6.892,6.892,0,0,1-1.73,1.2,4.5,4.5,0,0,1-2,.4,3.257,3.257,0,0,1-1.74-.2,7.847,7.847,0,0,1-1.43-.5,7.457,7.457,0,0,0-1.49-.5,5.492,5.492,0,0,0-1.94-.3,5.789,5.789,0,0,0-1.97.3,7.71,7.71,0,0,0-1.54.5c-0.47.2-.95,0.3-1.43,0.5a4.292,4.292,0,0,1-1.67.3,4.5,4.5,0,0,1-1.98-.4,7.691,7.691,0,0,1-1.81-1.2,16.193,16.193,0,0,1-1.61-1.6c-0.51-.7-0.99-1.3-1.43-1.9a9.34,9.34,0,0,1-.73-1.2c-0.26-.4-0.52-0.9-0.78-1.3-0.25-.5-0.49-0.9-0.71-1.4a10.583,10.583,0,0,1-.53-1.1,6.707,6.707,0,0,1-.39-1.1c-0.14-.4-0.26-0.9-0.38-1.3-0.12-.5-0.23-1-0.31-1.4a9.574,9.574,0,0,1-.18-1.1c-0.05-.4-0.1-0.7-0.13-1.2s-0.08-.9-0.1-1.4-0.03-.9-0.02-1.4c0-.4.02-0.7,0.03-1,0.05-.4.12-0.8,0.23-1.3s0.23-1,.38-1.5c0.15-.4.31-0.9,0.49-1.3a5.671,5.671,0,0,1,.53-1.1,9.129,9.129,0,0,1,1.68-2.1,15.285,15.285,0,0,1,2.1-1.6,17.653,17.653,0,0,1,2.43-1,22.219,22.219,0,0,1,2.65-.4,6.2,6.2,0,0,1,1.91.3,10.4,10.4,0,0,1,1.78.5c0.56,0.2,1.09.4,1.6,0.6a3.685,3.685,0,0,0,1.35.3,4.057,4.057,0,0,0,1.39-.3c0.54-.2,1.12-0.4,1.75-0.7,0.62-.2,1.29-0.4,1.98-0.6a14.5,14.5,0,0,1,2.06-.2h0.22a1.08,1.08,0,0,1,.52.1,9.489,9.489,0,0,1,4.32,1.1,12.2,12.2,0,0,1,3.71,3.4,6.629,6.629,0,0,0-1.3.9,2.471,2.471,0,0,0-.71.6,7.434,7.434,0,0,0-.75.8,8.11,8.11,0,0,0-.75,1.1,6.159,6.159,0,0,0-.63,1.2,4.892,4.892,0,0,0-.37,1.3,5.793,5.793,0,0,0-.05,1.1c0.01,0.4.05,0.8,0.1,1.2a6.983,6.983,0,0,0,.24,1.1,7.19,7.19,0,0,0,.35,1,10.882,10.882,0,0,0,.73,1.1,11.516,11.516,0,0,0,1.1,1.3c0.42,0.4.88,0.7,1.39,1.1A9.1,9.1,0,0,0,1489.09,13509.7Zm-1.63.8a4.043,4.043,0,0,1-1.13-.6,6.275,6.275,0,0,1-1.23-1.2c-0.4-.4-0.77-0.9-1.12-1.3a9.821,9.821,0,0,1-.81-1.4,9.526,9.526,0,0,1-.71-2.4,8.128,8.128,0,0,1-.03-2.6,6.059,6.059,0,0,1,.42-1.6q0.315-.75.72-1.5c0.27-.4.56-0.8,0.86-1.2s0.58-.7.84-1a1.513,1.513,0,0,1,.44-0.3,2.823,2.823,0,0,1,.58-0.5,7.241,7.241,0,0,0-2.84-2.2,8.416,8.416,0,0,0-3.46-.8h-0.24a2.092,2.092,0,0,1-.21-0.1h-0.2a7.244,7.244,0,0,0-2.06.2c-0.69.2-1.36,0.4-1.98,0.6-0.63.3-1.21,0.5-1.75,0.7a4.057,4.057,0,0,1-1.39.3,3.685,3.685,0,0,1-1.35-.3,5.752,5.752,0,0,1-1.6-.6c-0.57-.2-1.16-0.4-1.78-0.6a12,12,0,0,0-1.91-.2,8.757,8.757,0,0,0-4.48,1.3,9.936,9.936,0,0,0-3.31,3.2c-0.16.3-.32,0.6-0.49,1s-0.32.8-.45,1.2c-0.14.5-.26,0.9-0.36,1.4a6.823,6.823,0,0,0-.2,1.1,7.4,7.4,0,0,0-.05,1c0,0.4.01,0.9,0.02,1.3,0.02,0.5.05,0.9,0.09,1.3a9.279,9.279,0,0,0,.13,1.1c0.03,0.3.09,0.6,0.19,1.1q0.135,0.6.33,1.2c0.13,0.5.26,0.9,0.38,1.3s0.25,0.7.36,1c0.13,0.3.29,0.7,0.49,1.1s0.42,0.9.66,1.3c0.24,0.5.48,0.9,0.72,1.3a7.038,7.038,0,0,0,.66,1.1c0.4,0.5.82,1.1,1.25,1.6a14.306,14.306,0,0,0,1.36,1.6,9.279,9.279,0,0,0,1.53,1.1,3.418,3.418,0,0,0,1.74.3,4.292,4.292,0,0,0,1.67-.3,7.847,7.847,0,0,0,1.43-.5,7.71,7.71,0,0,1,1.54-.5,5.947,5.947,0,0,1,1.97-.2,5.674,5.674,0,0,1,1.94.2,7.457,7.457,0,0,1,1.49.5,8.025,8.025,0,0,1,1.42.5c0.48,0.1,1.05.2,1.7,0.3a4.823,4.823,0,0,0,1.75-.5,5.552,5.552,0,0,0,1.46-1.1,7.339,7.339,0,0,0,1.29-1.4c0.41-.5.82-1,1.23-1.6,0.19-.3.41-0.6,0.67-1,0.25-.5.5-0.9,0.74-1.3,0.24-.5.46-0.9,0.66-1.4a10.6,10.6,0,0,0,.46-1.1Zm-7.14-29.5a8.5,8.5,0,0,1-.25,4,9.153,9.153,0,0,1-1.66,3.2,7.615,7.615,0,0,1-1.3,1.3,8.636,8.636,0,0,1-1.6,1,10.832,10.832,0,0,1-1.86.7,7.1,7.1,0,0,1-2.07.1,6.958,6.958,0,0,1-.13-2,8.533,8.533,0,0,1,.37-1.9,8.688,8.688,0,0,1,.72-1.7,5.169,5.169,0,0,1,.93-1.3,9.734,9.734,0,0,1,3-2.3A10.23,10.23,0,0,1,1480.32,13481Zm-1.07,1.3a7.066,7.066,0,0,0-1.32.4c-0.44.2-.87,0.4-1.3,0.6-0.42.3-.82,0.6-1.19,0.9a8.868,8.868,0,0,0-.99.9,8.091,8.091,0,0,0-.74,1.1,9.787,9.787,0,0,0-.62,1.2,9.253,9.253,0,0,0-.41,1.4,4.539,4.539,0,0,0-.07,1.4,3.356,3.356,0,0,0,1.37-.3,3.637,3.637,0,0,0,1.32-.6,5.774,5.774,0,0,0,1.17-.8,12.685,12.685,0,0,0,.96-1,9.066,9.066,0,0,0,1.36-2.4A6.608,6.608,0,0,0,1479.25,13482.3Z" transform="translate(-1455 -13481)"/>
</svg>
