<svg xmlns="http://www.w3.org/2000/svg" width="130" height="40" viewBox="0 0 130 40">
  <g id="OnLive" transform="translate(-320 -262)">
    <rect id="pad" width="130" height="40" transform="translate(320 262)" fill="#c00"/>
    <path id="Path_92" data-name="Path 92" d="M-46.308,0V-19.176h4.416V-12h2.544v-7.176h4.416V0h-4.416V-8.16h-2.544V0ZM-33.78,0l3.552-19.176h5.856L-20.772,0H-25.4l-.408-3.408h-3.1L-29.364,0Zm6.456-16.2-1.128,9.384h2.208L-27.276-16.2ZM5.556,0H.852L-1.116-6.864-2.148-5.28V0H-6.42V-5.28L-7.452-6.864-9.42,0h-4.7l3.7-11.232L-14.1-19.176h4.68l2.928,7.848h.072v-7.848h4.272v7.848h.072L.852-19.176h4.68L1.86-11.232ZM19.6,0H15.324V-11.856h-.048L11.7,0H6.9V-19.176h4.272v11.3h.048l3.552-11.3H19.6Zm1.992,0V-19.176h6.12a5.328,5.328,0,0,1,3.624,1.032,4.487,4.487,0,0,1,1.152,3.48,7.484,7.484,0,0,1-.48,2.9,2.954,2.954,0,0,1-1.944,1.608v.048q2.9.528,2.9,4.416Q32.964,0,27.852,0ZM26-8.472v5.208h.912q1.056,0,1.344-.552a5.005,5.005,0,0,0,.288-2.064,5.06,5.06,0,0,0-.288-1.908,1.205,1.205,0,0,0-1.248-.684Zm0-7.44v4.32h.816a1.269,1.269,0,0,0,1.236-.564,3.652,3.652,0,0,0,.3-1.668,3.319,3.319,0,0,0-.288-1.584,1.135,1.135,0,0,0-1.08-.5Zm13.344,1.584v9.48q0,1.752,1.272,1.752t1.272-1.752v-9.48q0-1.752-1.272-1.752T39.348-14.328Zm-4.416,9.1v-8.712A6.076,6.076,0,0,1,35.64-17a4.524,4.524,0,0,1,1.992-1.86,6.76,6.76,0,0,1,2.988-.624,6.76,6.76,0,0,1,2.988.624A4.524,4.524,0,0,1,45.6-17a6.076,6.076,0,0,1,.708,3.06v8.712A6,6,0,0,1,45.624-2.3a4.708,4.708,0,0,1-1.98,1.932A6.387,6.387,0,0,1,40.62.312a5.714,5.714,0,0,1-4.152-1.488A5.384,5.384,0,0,1,34.932-5.232Z" transform="translate(385.143 291.93)" fill="#fff"/>
  </g>
</svg>
