<?xml version="1.0" encoding="utf-8"?>
<!-- Generator: Adobe Illustrator 25.0.0, SVG Export Plug-In . SVG Version: 6.00 Build 0)  -->
<svg version="1.1" id="Layer_1" xmlns="http://www.w3.org/2000/svg" xmlns:xlink="http://www.w3.org/1999/xlink" x="0px"
     y="0px"
     viewBox="0 0 135 30" style="enable-background:new 0 0 135 30;" xml:space="preserve">
<style type="text/css">
	.st0{fill:#FFFFFF;}
	.st1{fill:#FF8400;}
</style>
    <g>
	<path class="st0" d="M18.2,0.3h-4.1c-0.3,0-0.5,0.3-0.5,0.5v12.5L3.2,0.5C3.2,0.4,3,0.3,2.8,0.3h-2C0.5,0.3,0,0.6,0,0.8v23.2
		c0,0.3,0.5,0.6,0.8,0.6h4.1c0.3,0,0.4-0.3,0.4-0.6V11.2L16,24.6c0.1,0.1,0.3,0.1,0.5,0.1h1.7c0.3,0,0.6,0,0.6-0.3V0.8
		C18.9,0.6,18.5,0.3,18.2,0.3z M30.2,6.3c-2.7,0-4.9,0.9-6.5,2.6c-1.6,1.7-2.5,4-2.5,6.7c0,2.8,0.8,5.1,2.4,6.8
		c1.6,1.7,3.8,2.6,6.6,2.6c2.7,0,5-0.9,6.6-2.6c1.6-1.7,2.4-4,2.4-6.8c0-2.8-0.8-5.1-2.3-6.8C35.2,7.1,33,6.3,30.2,6.3z M32.8,19.4
		c-0.6,0.8-1.5,1.3-2.6,1.3c-2.5,0-3.6-1.7-3.6-5.1c0-1.6,0.3-2.9,1-3.8c0.7-0.8,1.5-1.3,2.6-1.3c2.4,0,3.6,1.6,3.6,5
		C33.8,17.2,33.5,18.5,32.8,19.4z M57.3,6.4h-4.3c-0.2,0-0.4,0.2-0.5,0.4l-4,9.2l-3.7-9.3c-0.1-0.2-0.3-0.4-0.5-0.4h-4.5
		c-0.2,0-0.3,0.2-0.4,0.3c-0.1,0.1-0.1,0.4,0,0.5l7.9,17.2c0.1,0.2,0.3,0.2,0.5,0.2h1.5c0.2,0,0.4,0,0.5-0.2l8.1-17.2
		c0.1-0.2,0.1-0.4,0-0.6C57.6,6.5,57.4,6.4,57.3,6.4z M65.8,6.4h-6.4c-0.3,0-0.7,0.4-0.7,0.7v3.2c0,0.3,0.4,0.6,0.7,0.6h1.9V24
		c0,0.3,0,0.6,0.3,0.6h4.1c0.3,0,0.3-0.3,0.3-0.6v-17C66.1,6.8,66.1,6.4,65.8,6.4z M63.8,0c-0.8,0-1.5,0.3-2,0.8
		c-0.6,0.5-0.8,1.2-0.8,2c0,0.8,0.3,1.4,0.8,2c0.6,0.5,1.3,0.8,2,0.8c0.8,0,1.5-0.3,2-0.8c0.6-0.5,0.8-1.2,0.8-2
		c0-0.8-0.3-1.4-0.8-2C65.3,0.3,64.6,0,63.8,0z M79.2,6.3c-2,0-3.6,0.5-4.8,1.5l-0.4-1c-0.1-0.2-0.3-0.4-0.5-0.4h-2.9
		c-0.3,0-0.3,0.4-0.3,0.7v17c0,0.3,0,0.6,0.3,0.6h4.1c0.3,0,0.4-0.3,0.4-0.6V12c0.5-0.4,0.8-0.7,1.4-0.9c0.6-0.3,1.2-0.4,1.7-0.4
		c1.1,0,2,0.3,2.4,0.8c0.5,0.6,0.8,1.5,0.8,2.8V24c0,0.3,0.2,0.6,0.5,0.6H86c0.3,0,0.6-0.3,0.6-0.6V13.6c0-2.3-0.7-4.1-2-5.4
		C83.3,6.9,81.5,6.3,79.2,6.3z M93.6,5.6c0.8,0,1.5-0.3,2-0.8c0.6-0.5,0.8-1.2,0.8-2c0-0.8-0.3-1.4-0.8-2c-0.6-0.5-1.3-0.8-2-0.8
		c-0.8,0-1.5,0.3-2,0.8c-0.6,0.5-0.8,1.2-0.8,2c0,0.8,0.3,1.4,0.8,2C92.1,5.3,92.8,5.6,93.6,5.6z M95.6,6.4h-6.4
		c-0.3,0-0.5,0.4-0.5,0.7v3.2c0,0.3,0.3,0.6,0.5,0.6h1.6V24c0,0.3,0.4,0.6,0.7,0.6h4.1c0.3,0,0.4-0.3,0.4-0.6v-17
		C96.1,6.8,95.9,6.4,95.6,6.4z"/>
        <path class="st1" d="M106.4,19.6c-0.7-0.7-1.5-1-2.5-1c-1,0-1.8,0.3-2.5,1c-0.7,0.6-1,1.4-1,2.4c0,0.9,0.3,1.7,1,2.4
		c0.7,0.7,1.5,1,2.5,1c1,0,1.8-0.3,2.5-1c0.7-0.7,1-1.5,1-2.4C107.5,21,107.1,20.2,106.4,19.6z"/>
        <g>
		<g>
			<path class="st0" d="M112.7,6.9c0.5,0,1,0.9,1,2v4.8c0,1.1,0,2,0,2l0,0c0.3-0.6,0.8-1.1,1.5-1.4c0.7-0.3,1.4-0.4,2.2-0.4
				c0.9,0,1.7,0.2,2.3,0.5c0.7,0.3,1.2,0.7,1.7,1.3c0.4,0.5,0.8,1.2,1,1.9c0.2,0.7,0.3,1.5,0.3,2.3c0,0.8-0.1,1.6-0.3,2.3
				c-0.2,0.7-0.5,1.3-1,1.9c-0.4,0.5-1,0.9-1.7,1.2c-0.7,0.3-1.4,0.5-2.3,0.5c-0.3,0-0.6,0-1-0.1c-0.4-0.1-0.7-0.2-1-0.3
				c-0.3-0.1-0.7-0.3-1-0.5c-0.3-0.2-0.3-0.2-0.3-0.2c-0.3-0.3-0.5-0.6-0.5-0.6s0,0.3,0,0.7s-0.4,0.7-1,0.7c-0.5,0-1-0.9-1-2V8.9
				C111.7,7.8,112.2,6.9,112.7,6.9z M120.5,18.2c-0.1-0.5-0.4-0.9-0.7-1.3c-0.3-0.4-0.7-0.7-1.1-0.9c-0.5-0.2-1-0.3-1.6-0.3
				c-0.6,0-1.2,0.1-1.6,0.4c-0.4,0.2-0.8,0.6-1.1,1c-0.3,0.4-0.5,0.9-0.6,1.4c-0.1,0.5-0.2,1-0.2,1.5c0,0.6,0.1,1.1,0.2,1.6
				c0.1,0.5,0.3,1,0.6,1.4c0.3,0.4,0.7,0.7,1.1,0.9c0.5,0.2,1,0.4,1.7,0.4c0.7,0,1.2-0.1,1.7-0.4c0.4-0.2,0.8-0.6,1.1-1
				c0.3-0.4,0.5-0.9,0.6-1.4c0.1-0.5,0.2-1.1,0.2-1.6C120.7,19.2,120.6,18.7,120.5,18.2z"/>
		</g>
            <g>
			<path class="st0" d="M133.7,28.6c-0.9,0.9-2.2,1.4-4.1,1.4c-0.5,0-1.1-0.1-1.7-0.2c-0.6-0.1-1.1-0.3-1.5-0.6
				c-0.5-0.3-0.8-0.6-1.1-1c-0.3-0.4-0.3-0.4-0.3-0.4c-0.1-0.6,0.7-1.1,1.7-1.1l0,0c0,0.3,0.1,0.6,0.3,0.8c0.2,0.2,0.4,0.4,0.7,0.6
				c0.3,0.1,0.6,0.2,1,0.3c0.3,0.1,0.7,0.1,1,0.1c0.6,0,1.2-0.1,1.6-0.3c0.4-0.2,0.8-0.5,1.1-0.9c0.3-0.4,0.5-0.8,0.6-1.3
				c0.1-0.5,0.1-0.5,0.1-0.5c0-0.7,0.1-1.4,0.1-1.6c0-0.2,0-0.4,0-0.4l0,0c-0.3,0.7-0.8,1.2-1.5,1.5c-0.7,0.3-1.4,0.5-2.1,0.5
				c-0.9,0-1.6-0.2-2.3-0.5c-0.6-0.3-1.2-0.7-1.6-1.2c-0.4-0.5-0.8-1.1-1-1.8c-0.2-0.7-0.3-1.4-0.3-2.2c0-0.7,0.1-1.4,0.3-2.1
				c0.2-0.7,0.5-1.3,0.9-1.9c0.4-0.6,1-1,1.7-1.4c0.7-0.4,1.5-0.6,2.5-0.6c0.7,0,1.4,0.2,2,0.5c0.6,0.3,0.6,0.3,0.6,0.3
				c0.5,0.6,0.8,1.1,0.8,1.1c0,0,0-0.4,0-0.8c0-0.4,0.4-0.8,0.9-0.8c0.5,0,0.9,0.9,0.9,2v8.3C135,26.3,134.6,27.7,133.7,28.6z
				 M131.3,23.6c0.4-0.3,0.8-0.6,1.1-1c0.3-0.4,0.5-0.9,0.6-1.4c0.1-0.5,0.2-1,0.2-1.6c0-0.5-0.1-1-0.2-1.5
				c-0.1-0.5-0.3-0.9-0.6-1.3c-0.3-0.4-0.6-0.7-1-0.9c-0.4-0.2-0.9-0.3-1.5-0.3c-0.6,0-1.1,0.1-1.6,0.3c-0.4,0.2-0.8,0.5-1.1,0.9
				c-0.3,0.4-0.5,0.8-0.6,1.3c-0.1,0.5-0.2,1-0.2,1.5c0,0.5,0.1,1,0.2,1.5c0.1,0.5,0.3,1,0.5,1.4c0.3,0.4,0.6,0.7,1,1
				c0.4,0.3,0.9,0.4,1.6,0.4C130.3,24,130.8,23.8,131.3,23.6z"/>
		</g>
	</g>
</g>
</svg>
