<svg id="Pics_counter" xmlns="http://www.w3.org/2000/svg" width="90" height="30" viewBox="0 0 90 30">
  <defs>
    <style>
      .cls-1 {
        opacity: 0.5;
      }

      .cls-2 {
        fill: #fff;
        fill-rule: evenodd;
      }
    </style>
  </defs>
  <rect id="pad" class="cls-1" width="90" height="30" rx="4" ry="4"/>
  <path id="icon_Photos" data-name="icon | Photos" class="cls-2" d="M1106.82,10065.7a3.575,3.575,0,0,1-.47.7,1.845,1.845,0,0,1-.71.4,2.458,2.458,0,0,1-.85.2h-22.57a2.569,2.569,0,0,1-.87-0.2,1.845,1.845,0,0,1-.71-0.4,3.179,3.179,0,0,1-.47-0.7,2.408,2.408,0,0,1-.18-0.9v-13.6a2.408,2.408,0,0,1,.18-0.9,3.179,3.179,0,0,1,.47-0.7,1.845,1.845,0,0,1,.71-0.4,1.355,1.355,0,0,1,.87-0.2h1.91v-0.1a2.393,2.393,0,0,1,.17-0.9,0.863,0.863,0,0,1,.48-0.3,1.99,1.99,0,0,1,.71-0.5,2.513,2.513,0,0,1,.86-0.2h3.88a2.458,2.458,0,0,1,.85.2,2.044,2.044,0,0,1,.7.5,0.873,0.873,0,0,1,.47.3,2.607,2.607,0,0,1,.17.9v0.1h12.37a1.3,1.3,0,0,1,.85.2,1.845,1.845,0,0,1,.71.4,3.575,3.575,0,0,1,.47.7,2.408,2.408,0,0,1,.18.9v13.6A2.408,2.408,0,0,1,1106.82,10065.7Zm-21.82-12.2a1.5,1.5,0,0,0-3,0v10a1.5,1.5,0,0,0,3,0v-10Zm9.5-.5a5.5,5.5,0,1,0,5.5,5.5A5.523,5.523,0,0,0,1094.5,10053Zm9.01,0a1.5,1.5,0,1,0,1.5,1.5A1.517,1.517,0,0,0,1103.51,10053Zm-9.01,9a3.5,3.5,0,1,1,3.5-3.5A3.523,3.523,0,0,1,1094.5,10062Z" transform="translate(-1070 -10042)"/>
</svg>
