<?xml version="1.0" encoding="utf-8"?>
<!-- Generator: Adobe Illustrator 25.0.1, SVG Export Plug-In . SVG Version: 6.00 Build 0)  -->
<svg version="1.1" id="Layer_1" xmlns="http://www.w3.org/2000/svg" xmlns:xlink="http://www.w3.org/1999/xlink" x="0px" y="0px"
	 viewBox="0 0 120 120" style="enable-background:new 0 0 120 120;" xml:space="preserve">
<style type="text/css">
	.st0{opacity:0.5;}
	.st1{opacity:0.33;}
	.st2{fill:#FFFFFF;}
</style>
<g class="st0">
	<path class="st1" d="M60,7.4C31,7.4,7.4,31,7.4,60c0,29,23.6,52.5,52.6,52.5c29,0,52.6-23.6,52.6-52.5C112.6,31,89,7.4,60,7.4z"/>
	<path class="st2" d="M60,120C26.9,120,0,93.1,0,60C0,26.9,26.9,0,60,0c33.1,0,60,26.9,60,60C120,93.1,93.1,120,60,120z M60,7.4
		C31,7.4,7.4,31,7.4,60c0,29,23.6,52.5,52.6,52.5c29,0,52.6-23.6,52.6-52.5C112.6,31,89,7.4,60,7.4z"/>
	<g>
		<path class="st2" d="M48.9,87.3c-3,1.9-5.5,0.5-5.5-3.1V35.6c0-3.6,2.5-4.9,5.5-3.1l39.3,24c3,1.8,3,4.9,0,6.7L48.9,87.3z"/>
	</g>
</g>
</svg>
