<?xml version="1.0" encoding="utf-8"?>
<!-- Generator: Adobe Illustrator 25.0.1, SVG Export Plug-In . SVG Version: 6.00 Build 0)  -->
<svg version="1.1" id="Layer_1" xmlns="http://www.w3.org/2000/svg" xmlns:xlink="http://www.w3.org/1999/xlink" x="0px" y="0px"
	 viewBox="0 0 68 68" style="enable-background:new 0 0 68 68;" xml:space="preserve">
<style type="text/css">
	.st0{opacity:0.5;}
	.st1{opacity:0.33;}
	.st2{fill:#FFFFFF;}
</style>
<g class="st0">
	<path class="st1" d="M34,4.2C17.6,4.2,4.2,17.6,4.2,34c0,16.4,13.4,29.8,29.8,29.8c16.4,0,29.8-13.4,29.8-29.8
		C63.8,17.6,50.4,4.2,34,4.2z"/>
	<path class="st2" d="M34,68C15.3,68,0,52.7,0,34C0,15.3,15.3,0,34,0c18.7,0,34,15.3,34,34C68,52.7,52.7,68,34,68z M34,4.2
		C17.6,4.2,4.2,17.6,4.2,34c0,16.4,13.4,29.8,29.8,29.8c16.4,0,29.8-13.4,29.8-29.8C63.8,17.6,50.4,4.2,34,4.2z"/>
	<g>
		<path class="st2" d="M30.1,48c-3,1.9-5.5,0.5-5.5-3.1V23c0-3.6,2.5-4.9,5.5-3.1l17.5,10.7c3,1.8,3,4.9,0,6.7L30.1,48z"/>
	</g>
</g>
</svg>
