<svg xmlns="http://www.w3.org/2000/svg" width="24" height="24" viewBox="0 0 24 24">
  <defs>
    <style>
      .cls-1 {
        fill: #ff8400;
        fill-rule: evenodd;
      }
    </style>
  </defs>
  <path id="Search_h" class="cls-1" d="M1522,34.449l-6.91-5.824A9.732,9.732,0,0,0,1506.83,13a9.492,9.492,0,0,0-8.8,10.248c0.4,5.32,4.68,8.955,10.68,8.555a10.824,10.824,0,0,0,4.07-1.036L1520.01,37Zm-21.98-11.543A7.4,7.4,0,0,1,1506.97,15a7.571,7.571,0,0,1,8.04,6.942,7.4,7.4,0,0,1-6.95,7.906A7.571,7.571,0,0,1,1500.02,22.906Z" transform="translate(-1498 -13)"/>
</svg>
