<svg xmlns="http://www.w3.org/2000/svg" width="24" height="24" viewBox="0 0 24 24">
  <defs>
    <style>
      .cls-1 {
        fill: #fff;
        fill-rule: evenodd;
      }
    </style>
  </defs>
  <path id="Search" class="cls-1" d="M1582,34.45l-6.91-5.824A9.732,9.732,0,0,0,1566.83,13a9.491,9.491,0,0,0-8.8,10.247c0.4,5.32,4.68,8.955,10.68,8.555a10.839,10.839,0,0,0,4.07-1.036L1580.01,37ZM1560.02,22.9A7.4,7.4,0,0,1,1566.97,15a7.573,7.573,0,0,1,8.04,6.942,7.4,7.4,0,0,1-6.95,7.907A7.572,7.572,0,0,1,1560.02,22.9Z" transform="translate(-1558 -13)"/>
</svg>
