<svg id="Updated_photo" xmlns="http://www.w3.org/2000/svg" width="170" height="40" viewBox="0 0 170 40">
  <defs>
    <style>
      .cls-1 {
        fill: #ff8400;
      }

      .cls-2 {
        fill: #fff;
        fill-rule: evenodd;
      }
    </style>
  </defs>
  <rect id="pad" class="cls-1" x="129" width="41" height="40"/>
  <path id="icon_Photos" data-name="icon | Photos" class="cls-2" d="M482.821,290.653a2.172,2.172,0,0,1-.476.7,2.345,2.345,0,0,1-.7.473,2.108,2.108,0,0,1-.857.173H458.218a2.151,2.151,0,0,1-.864-0.173,2.309,2.309,0,0,1-.71-0.473,2.156,2.156,0,0,1-.476-0.7,2.124,2.124,0,0,1-.176-0.86v-13.57a2.148,2.148,0,0,1,.176-0.875,2.241,2.241,0,0,1,1.186-1.187,2.171,2.171,0,0,1,.864-0.176h1.907v-0.1a2.182,2.182,0,0,1,.176-0.878,1.121,1.121,0,0,1,.476-0.35,2.253,2.253,0,0,1,.71-0.48,2.178,2.178,0,0,1,.864-0.176h3.874a2.12,2.12,0,0,1,.857.176,2.191,2.191,0,0,1,.7.48,1.126,1.126,0,0,1,.468.35,2.182,2.182,0,0,1,.176.878v0.1h12.364a2.127,2.127,0,0,1,.857.176,2.263,2.263,0,0,1,1.178,1.187,2.164,2.164,0,0,1,.176.875v13.57A2.141,2.141,0,0,1,482.821,290.653ZM461,278.5a1.5,1.5,0,0,0-3,0v10a1.5,1.5,0,1,0,3,0v-10Zm9.5-.51a5.5,5.5,0,1,0,5.5,5.5A5.5,5.5,0,0,0,470.5,277.99Zm9.007-.006a1.5,1.5,0,1,0,1.5,1.5A1.5,1.5,0,0,0,479.507,277.984Zm-9.007,9.008a3.5,3.5,0,1,1,3.5-3.5A3.5,3.5,0,0,1,470.5,286.992Z" transform="translate(-320 -262)"/>
  <g id="text">
    <rect id="pad-2" data-name="pad" class="cls-1" width="126" height="40"/>
    <path id="Обновена" class="cls-2" d="M337.111,275.85q1.272,0,1.272,1.752v9.48q0,1.752-1.272,1.752t-1.272-1.752V277.6q0-1.752,1.272-1.752h0Zm-4.152,14.9a5.712,5.712,0,0,0,4.152,1.488,6.387,6.387,0,0,0,3.024-.684,4.708,4.708,0,0,0,1.98-1.932,6,6,0,0,0,.684-2.928v-8.712a6.086,6.086,0,0,0-.708-3.06,4.529,4.529,0,0,0-1.992-1.86,7.466,7.466,0,0,0-5.976,0,4.519,4.519,0,0,0-1.992,1.86,6.076,6.076,0,0,0-.708,3.06V286.7A5.384,5.384,0,0,0,332.959,290.754Zm17.232-7.3a1.206,1.206,0,0,1,1.248.684,5.06,5.06,0,0,1,.288,1.908,5.005,5.005,0,0,1-.288,2.064,1.382,1.382,0,0,1-1.344.552h-0.912v-5.208h1.008Zm4.3-10.7h-9.72V291.93h6.264q5.112,0,5.112-5.688,0-6.048-5.112-6.048h-1.848v-4.176h5.3v-3.264Zm8.04,19.176v-8.16h2.544v8.16h4.416V272.754h-4.416v7.176h-2.544v-7.176h-4.416V291.93h4.416Zm14.616-16.08q1.272,0,1.272,1.752v9.48q0,1.752-1.272,1.752t-1.272-1.752V277.6q0-1.752,1.272-1.752h0Zm-4.152,14.9a5.712,5.712,0,0,0,4.152,1.488,6.387,6.387,0,0,0,3.024-.684,4.708,4.708,0,0,0,1.98-1.932,6,6,0,0,0,.684-2.928v-8.712a6.086,6.086,0,0,0-.708-3.06,4.529,4.529,0,0,0-1.992-1.86,7.466,7.466,0,0,0-5.976,0,4.519,4.519,0,0,0-1.992,1.86,6.076,6.076,0,0,0-.708,3.06V286.7A5.384,5.384,0,0,0,372.991,290.754Zm18.072,1.176q5.112,0,5.112-5.688,0-3.888-2.9-4.416v-0.048a2.959,2.959,0,0,0,1.944-1.608,7.484,7.484,0,0,0,.48-2.9,4.487,4.487,0,0,0-1.152-3.48,5.33,5.33,0,0,0-3.624-1.032H384.8V291.93h6.264Zm-0.84-8.472a1.206,1.206,0,0,1,1.248.684,5.06,5.06,0,0,1,.288,1.908,5.005,5.005,0,0,1-.288,2.064,1.382,1.382,0,0,1-1.344.552h-0.912v-5.208h1.008Zm-0.024-7.44a1.135,1.135,0,0,1,1.08.5,3.319,3.319,0,0,1,.288,1.584,3.652,3.652,0,0,1-.3,1.668,1.27,1.27,0,0,1-1.236.564h-0.816v-4.32H390.2Zm17.976,15.912v-3.7h-5.616v-4.272h4.728v-3.7h-4.728V276.45h5.4v-3.7h-9.816V291.93h10.032Zm6.384,0v-8.16H417.1v8.16h4.416V272.754H417.1v7.176h-2.544v-7.176h-4.416V291.93h4.416Zm12.528,0,0.456-3.408h3.1l0.408,3.408h4.632l-3.6-19.176h-5.856l-3.552,19.176h4.416Zm2.088-16.2,1.032,9.384H428l1.128-9.384h0.048Z" transform="translate(-320 -262)"/>
  </g>
</svg>
