<svg id="Updated_photo_short" xmlns="http://www.w3.org/2000/svg" width="41" height="40" viewBox="0 0 41 40">
  <defs>
    <style>
      .cls-1 {
        fill: #ff8400;
      }

      .cls-2 {
        fill: #fff;
        fill-rule: evenodd;
      }
    </style>
  </defs>
  <rect id="pad" class="cls-1" width="41" height="40"/>
  <path id="icon_Photos" data-name="icon | Photos" class="cls-2" d="M482.821,290.653a2.172,2.172,0,0,1-.476.7,2.345,2.345,0,0,1-.7.473,2.108,2.108,0,0,1-.857.173H458.218a2.151,2.151,0,0,1-.864-0.173,2.309,2.309,0,0,1-.71-0.473,2.156,2.156,0,0,1-.476-0.7,2.124,2.124,0,0,1-.176-0.86v-13.57a2.148,2.148,0,0,1,.176-0.875,2.241,2.241,0,0,1,1.186-1.187,2.171,2.171,0,0,1,.864-0.176h1.907v-0.1a2.182,2.182,0,0,1,.176-0.878,1.121,1.121,0,0,1,.476-0.35,2.253,2.253,0,0,1,.71-0.48,2.178,2.178,0,0,1,.864-0.176h3.874a2.12,2.12,0,0,1,.857.176,2.191,2.191,0,0,1,.7.48,1.126,1.126,0,0,1,.468.35,2.182,2.182,0,0,1,.176.878v0.1h12.364a2.127,2.127,0,0,1,.857.176,2.263,2.263,0,0,1,1.178,1.187,2.164,2.164,0,0,1,.176.875v13.57A2.141,2.141,0,0,1,482.821,290.653ZM461,278.5a1.5,1.5,0,0,0-3,0v10a1.5,1.5,0,1,0,3,0v-10Zm9.5-.51a5.5,5.5,0,1,0,5.5,5.5A5.5,5.5,0,0,0,470.5,277.99Zm9.007-.006a1.5,1.5,0,1,0,1.5,1.5A1.5,1.5,0,0,0,479.507,277.984Zm-9.007,9.008a3.5,3.5,0,1,1,3.5-3.5A3.5,3.5,0,0,1,470.5,286.992Z" transform="translate(-449 -262)"/>
</svg>
