<svg xmlns="http://www.w3.org/2000/svg" width="24" height="14" viewBox="0 0 24 14">
  <defs>
    <style>
      .cls-1 {
        fill: #999;
        fill-rule: evenodd;
      }
    </style>
  </defs>
  <path id="Viewed" class="cls-1" d="M1143.98,918.55c0.22-.152.44-0.295,0.66-0.432-0.01,0-.01,0-0.02-0.007-0.25-.1-0.48-0.222-0.73-0.321a0.4,0.4,0,0,1-.27-0.433c0-.343.21-0.643,0.18-0.991a0.143,0.143,0,0,1,.11-0.109,0.222,0.222,0,0,0,.2-0.239,1.245,1.245,0,0,0-.03-0.426,0.47,0.47,0,0,1-.04-0.186c0.1-.213.01-0.477,0.1-0.65a0.456,0.456,0,0,0-.02-0.429,1.374,1.374,0,0,0-1.34-1.1,5.326,5.326,0,0,1-.58,0,1.179,1.179,0,0,0-.95.577c-0.06.122-.13,0.244-0.2,0.367a0.822,0.822,0,0,0-.06.648c0.08,0.229.09,0.472,0.19,0.695a0.074,0.074,0,0,1-.02.068,0.1,0.1,0,0,0-.1.164,0.775,0.775,0,0,0,.23.439,0.21,0.21,0,0,1,.09.122,3.6,3.6,0,0,0,.31.771,0.974,0.974,0,0,1-.01.378,0.314,0.314,0,0,1-.24.222c-0.49.3-1.01,0.553-1.49,0.886a1.789,1.789,0,0,0-.57.622c-0.17.314-.22,0.67-0.39,0.981-0.03.064-.03,0.123,0.07,0.139,0.06,0.009.12,0.068,0.18,0.076,0.33,0.032.67,0.076,1,.079,0.72,0.01,1.44.006,2.16,0.006a3.782,3.782,0,0,1,.2-0.4A4.355,4.355,0,0,1,1143.98,918.55Zm12.3,2.27a2.757,2.757,0,0,0-1.6-1.989c-0.38-.126-0.75-0.245-1.12-0.394-0.48-.193-0.94-0.428-1.42-0.619a0.766,0.766,0,0,1-.51-0.836c-0.01-.661.41-1.241,0.34-1.912a0.3,0.3,0,0,1,.21-0.211,0.418,0.418,0,0,0,.39-0.462,2.117,2.117,0,0,0-.06-0.823,0.991,0.991,0,0,1-.06-0.357c0.18-.414,0-0.92.19-1.253a0.947,0.947,0,0,0-.05-0.831,2.658,2.658,0,0,0-2.58-2.12,9.925,9.925,0,0,1-1.12.009,2.23,2.23,0,0,0-1.83,1.113c-0.13.236-.26,0.469-0.39,0.707a1.583,1.583,0,0,0-.12,1.253c0.16,0.442.18,0.913,0.37,1.341a0.144,0.144,0,0,1-.05.132,0.2,0.2,0,0,0-.19.317,1.641,1.641,0,0,0,.44.847,0.468,0.468,0,0,1,.19.236,6.786,6.786,0,0,0,.59,1.488,1.659,1.659,0,0,1-.03.728,0.564,0.564,0,0,1-.45.429c-0.95.578-1.96,1.068-2.88,1.711a3.457,3.457,0,0,0-1.09,1.2c-0.34.608-.43,1.294-0.75,1.895-0.07.123-.07,0.236,0.13,0.267,0.12,0.018.22,0.134,0.34,0.146,0.64,0.065,1.29.147,1.93,0.156,1.74,0.021,3.47.006,5.21,0.006h5.6a5.484,5.484,0,0,0,.56,0,0.353,0.353,0,0,0,.28-0.4C1156.49,922.028,1156.5,921.4,1156.28,920.82Zm6.72-.644c-0.19-.418-0.18-0.883-0.34-1.306a2.045,2.045,0,0,0-1.18-1.466c-0.28-.094-0.56-0.181-0.83-0.29-0.35-.143-0.69-0.316-1.04-0.457a0.571,0.571,0,0,1-.38-0.616,13.427,13.427,0,0,0,.25-1.408,0.217,0.217,0,0,1,.15-0.155,0.317,0.317,0,0,0,.3-0.34,1.808,1.808,0,0,0-.05-0.606,0.689,0.689,0,0,1-.05-0.264c0.14-.305.01-0.677,0.14-0.923a0.677,0.677,0,0,0-.03-0.611,1.755,1.755,0,0,0-.63-1.076,1.734,1.734,0,0,0-1.27-.486,7.478,7.478,0,0,1-.82.007,1.656,1.656,0,0,0-1.36.819c-0.09.175-.19,0.347-0.28,0.521a1.16,1.16,0,0,0-.09.924c0.12,0.324.13,0.672,0.27,0.986a0.134,0.134,0,0,1-.03.1,0.144,0.144,0,0,0-.14.234,1.173,1.173,0,0,0,.32.624,0.33,0.33,0,0,1,.14.172,4.865,4.865,0,0,0,.43,1.1,1.1,1.1,0,0,1-.02.537,0.41,0.41,0,0,1-.33.316c-0.64.39-1.32,0.729-1.95,1.147,0.18,0.067.37,0.132,0.57,0.2l0.24,0.081a3.646,3.646,0,0,1,2.2,2.539c0.35,0,.71,0,1.07,0h4.13c0.13,0,.27.01,0.41,0A0.255,0.255,0,0,0,1163,920.176Z" transform="translate(-1139 -909)"/>
</svg>
